<svg xmlns="http://www.w3.org/2000/svg" viewBox="8 8 48 48" width="48" height="48" role="img" aria-labelledby="title desc">
  <title id="title">Ikona FOTO</title>
  <desc id="desc">Autorska ikona przyslony obiektywu do karty przegladarki.</desc>

  <g fill="#111111" transform="translate(32 32)">
    <path d="M 0 -24 C 8 -24 14 -20 17 -12 L 7 -8 C 6 -11 3 -14 0 -14 Z" transform="rotate(0)" />
    <path d="M 0 -24 C 8 -24 14 -20 17 -12 L 7 -8 C 6 -11 3 -14 0 -14 Z" transform="rotate(60)" />
    <path d="M 0 -24 C 8 -24 14 -20 17 -12 L 7 -8 C 6 -11 3 -14 0 -14 Z" transform="rotate(120)" />
    <path d="M 0 -24 C 8 -24 14 -20 17 -12 L 7 -8 C 6 -11 3 -14 0 -14 Z" transform="rotate(180)" />
    <path d="M 0 -24 C 8 -24 14 -20 17 -12 L 7 -8 C 6 -11 3 -14 0 -14 Z" transform="rotate(240)" />
    <path d="M 0 -24 C 8 -24 14 -20 17 -12 L 7 -8 C 6 -11 3 -14 0 -14 Z" transform="rotate(300)" />
    <circle cx="0" cy="0" r="8" />
  </g>
</svg>
