<?xml version="1.0" standalone="no"?>
<!DOCTYPE svg PUBLIC "-//W3C//DTD SVG 20010904//EN"
 "http://www.w3.org/TR/2001/REC-SVG-20010904/DTD/svg10.dtd">
<svg version="1.0" xmlns="http://www.w3.org/2000/svg"
 width="2048.000000pt" height="1161.000000pt" viewBox="0 0 2048.000000 1161.000000"
 preserveAspectRatio="xMidYMid meet">

<g transform="translate(0.000000,1161.000000) scale(0.100000,-0.100000)"
fill="#000000" stroke="none">
<path d="M9980 10614 c-223 -16 -399 -37 -580 -70 -1963 -357 -3512 -1899
-3879 -3862 -88 -470 -105 -1020 -45 -1492 175 -1389 937 -2623 2104 -3410
1126 -759 2540 -1005 3865 -673 710 178 1355 507 1930 984 128 107 401 374
519 509 613 698 1015 1557 1151 2460 66 439 71 913 15 1357 -223 1747 -1407
3251 -3060 3886 -465 178 -910 273 -1460 312 -250 17 -310 17 -560 -1z m-1670
-2874 c202 -25 381 -76 550 -156 92 -44 257 -148 313 -199 l28 -25 -68 -123
c-81 -145 -112 -183 -162 -197 -50 -13 -85 -2 -195 64 -168 100 -266 143 -416
187 -114 32 -398 39 -530 11 -355 -73 -552 -290 -538 -593 6 -121 39 -200 120
-280 123 -124 266 -191 678 -319 605 -188 795 -276 964 -445 168 -168 238
-345 238 -605 2 -609 -406 -1058 -1067 -1175 -124 -22 -404 -31 -546 -16 -258
26 -454 82 -674 191 -141 70 -276 159 -375 248 l-53 48 91 137 c73 108 100
141 132 157 79 40 109 30 305 -100 208 -138 333 -194 526 -236 115 -25 355
-30 478 -10 394 66 630 298 648 636 10 174 -32 285 -146 392 -132 124 -248
175 -684 303 -469 137 -637 204 -797 316 -247 174 -370 417 -370 735 0 186 26
297 106 454 95 186 255 341 464 448 158 82 273 119 449 147 105 16 415 19 531
5z m5099 -1927 c424 -1061 771 -1932 771 -1936 0 -5 -105 -7 -232 -5 -224 3
-234 4 -271 26 -20 13 -48 42 -61 65 -13 23 -103 250 -201 505 l-178 462 -868
0 c-684 0 -868 -3 -872 -12 -2 -7 -86 -224 -186 -483 -197 -509 -210 -533
-291 -555 -55 -15 -462 -13 -458 3 2 6 349 877 771 1935 l769 1922 268 0 268
0 771 -1927z"/>
<path d="M12356 7193 c-13 -85 -79 -259 -630 -1683 -41 -106 -74 -195 -72
-197 1 -2 325 -2 718 -1 l716 3 -309 800 c-289 747 -399 1050 -399 1096 0 34
-17 20 -24 -18z"/>
<path d="M1900 5805 l0 -1935 260 0 260 0 0 885 0 885 173 0 c198 0 255 -12
314 -63 27 -24 940 -1069 1397 -1601 88 -101 86 -100 410 -104 267 -3 279 -3
265 14 -183 228 -1604 1910 -1635 1935 -24 20 -64 45 -89 55 -49 21 -55 29
-25 39 51 16 156 127 691 731 315 357 663 749 772 872 l198 223 -273 -3 c-264
-3 -275 -4 -321 -27 -41 -20 -153 -143 -744 -812 -573 -648 -705 -793 -747
-816 -49 -27 -57 -28 -218 -31 l-168 -4 0 846 0 846 -260 0 -260 0 0 -1935z"/>
<path d="M16192 5808 l3 -1933 263 -3 262 -2 0 835 0 835 795 0 795 0 0 210 0
210 -795 0 -795 0 0 680 0 680 935 0 935 0 0 210 0 210 -1200 0 -1200 0 2
-1932z"/>
</g>
</svg>
